# Blender v2.80 (sub 75) OBJ File: 'NewStopSign.blend'
# www.blender.org
mtllib StopSign.mtl
o STOPALLM_1
v -0.328329 9.728563 0.132452
v -0.327756 9.728563 -0.049349
v 0.230541 9.728563 0.134123
v 0.231115 9.728563 -0.047678
v 0.231115 0.021121 -0.047680
v -0.327756 0.021121 -0.049347
v 0.230541 0.021121 0.134121
v -0.328329 0.021121 0.132454
vt 1.775990 -0.000002
vt 1.775990 0.999997
vt 1.291900 -0.000001
vt 1.291900 0.999998
vt -1.686860 1.000000
vt -1.202770 1.000000
vt -1.686860 0.000003
vt -1.202770 0.000002
vt 1.291900 0.990187
vt 1.775990 0.977993
vt -1.686860 -0.132901
vt -1.202770 -0.145096
vt 1.775990 0.977993
vt 1.291900 0.990187
vt -1.202770 -0.145096
vt -1.686860 -0.132901
vn 0.0000 -1.0000 0.0000
vn -0.0000 1.0000 0.0000
vn -0.0030 -0.0000 1.0000
vn -1.0000 0.0000 -0.0032
vn 0.0030 -0.0000 -1.0000
vn 1.0000 0.0000 0.0032
usemtl STOPALLM
s 1
f 1/1/1 2/2/1 3/3/1
f 4/4/1 3/3/1 2/2/1
f 5/5/2 6/6/2 7/7/2
f 8/8/2 7/7/2 6/6/2
f 4/9/3 2/10/3 5/11/3
f 6/12/3 5/11/3 2/10/3
f 3/3/4 4/4/4 7/7/4
f 5/5/4 7/7/4 4/4/4
f 1/13/5 3/14/5 8/15/5
f 7/16/5 8/15/5 3/14/5
f 2/2/6 1/1/6 6/6/6
f 8/8/6 6/6/6 1/1/6
o STOP_0.001
v -2.488962 10.622889 -0.204025
v -2.488827 8.600661 0.029075
v -2.489677 10.622889 0.029075
v -2.488112 8.600671 -0.204025
v -2.541487 8.578821 0.028915
v -2.542357 10.644684 0.028911
v -1.060354 12.053415 0.033462
v -1.080094 7.118662 0.033401
v -1.058304 7.171341 0.033470
v 0.985746 7.119522 0.039741
v 0.963906 7.172192 0.039676
v 2.445910 8.580921 0.044224
v 2.393229 8.602721 0.044063
v 2.445040 10.646780 0.044220
v 2.392380 10.624940 0.044060
v 0.983656 12.106949 0.039734
v 0.961856 12.054266 0.039669
v -1.082194 12.106080 0.033394
v -2.539667 8.579201 -0.267483
v -2.540537 10.644307 -0.267487
v -1.057588 7.171341 -0.199631
v -1.078814 7.119571 -0.263001
v 0.964622 7.172192 -0.193424
v 2.393945 8.602721 -0.189038
v 2.393095 10.624940 -0.189041
v 0.962572 12.054265 -0.193432
v -1.059639 12.053415 -0.199639
v 0.986286 7.120431 -0.256661
v 2.445910 8.581301 -0.252182
v 2.445039 10.646402 -0.252186
v 0.984186 12.106037 -0.256668
v -1.080904 12.105169 -0.263008
vt 0.031891 0.698023
vt 0.031881 0.698023
vt 0.032044 0.301575
vt 0.032054 0.301575
vt 0.021780 0.702296
vt 0.021946 0.297293
vt 0.305936 0.978473
vt 0.302150 0.011032
vt 0.306329 0.021361
vt 0.698252 0.011203
vt 0.694064 0.021527
vt 0.978220 0.297704
vt 0.968119 0.301977
vt 0.978054 0.702707
vt 0.967956 0.698425
vt 0.697850 0.988968
vt 0.693671 0.978639
vt 0.301748 0.988797
vt 0.021967 0.702223
vt 0.022133 0.297367
vt 0.306339 0.021361
vt 0.302235 0.011211
vt 0.694074 0.021527
vt 0.968129 0.301977
vt 0.967966 0.698425
vt 0.693681 0.978639
vt 0.305946 0.978473
vt 0.698192 0.011381
vt 0.978058 0.297777
vt 0.977892 0.702633
vt 0.697790 0.988789
vt 0.301833 0.988619
vn 1.0000 0.0008 0.0031
vn 1.0000 0.0008 0.0030
vn 1.0000 0.0009 0.0031
vn -0.0031 0.0000 1.0000
vn -0.0030 0.0000 1.0000
vn -0.9950 -0.0007 -0.1003
vn -0.9950 -0.0008 -0.1003
vn -0.9950 -0.0008 -0.1002
vn -0.0009 1.0000 0.0003
vn -0.0009 1.0000 -0.0000
vn 0.0011 -0.9953 -0.0971
vn 0.0011 -0.9953 -0.0973
vn -0.0008 1.0000 -0.0000
vn -0.0008 1.0000 -0.0003
vn -1.0000 -0.0008 -0.0029
vn -1.0000 -0.0008 -0.0031
vn 0.0011 -0.9953 -0.0972
vn 0.0031 0.0000 -1.0000
vn 0.9956 0.0008 -0.0941
vn 0.0009 -1.0000 0.0002
vn 0.0009 -1.0000 0.0000
vn -0.0005 0.9953 -0.0972
vn 0.0008 -1.0000 0.0000
vn 0.0008 -1.0000 0.0003
vn -0.0005 0.9953 -0.0971
usemtl STOP.001
s 1
f 9/17/7 11/18/8 10/19/9
f 9/17/7 10/19/9 12/20/7
f 11/18/10 14/21/10 13/22/11
f 11/18/10 13/22/11 10/19/11
f 15/23/10 14/21/10 11/18/10
f 10/19/11 13/22/11 16/24/10
f 10/19/11 16/24/10 17/25/10
f 17/25/10 16/24/10 18/26/10
f 17/25/10 18/26/10 19/27/10
f 19/27/10 18/26/10 20/28/10
f 19/27/10 20/28/10 21/29/10
f 21/29/10 20/28/10 22/30/11
f 21/29/10 22/30/11 23/31/11
f 23/31/11 22/30/11 24/32/10
f 23/31/11 24/32/10 25/33/10
f 25/33/10 24/32/10 26/34/10
f 25/33/10 26/34/10 15/23/10
f 15/23/10 26/34/10 14/21/10
f 14/21/12 28/35/13 27/36/13
f 14/21/12 27/36/13 13/22/14
f 12/20/7 10/19/9 17/25/15
f 12/20/7 17/25/15 29/37/16
f 13/22/14 27/36/13 30/38/17
f 13/22/14 30/38/17 16/24/18
f 12/20/10 29/37/10 31/39/10
f 12/20/10 31/39/10 32/40/10
f 12/20/10 32/40/10 33/41/10
f 12/20/10 33/41/10 34/42/10
f 12/20/10 34/42/10 35/43/10
f 12/20/10 35/43/10 9/17/10
f 29/37/16 17/25/15 19/27/19
f 29/37/16 19/27/19 31/39/20
f 31/39/20 19/27/19 21/29/21
f 31/39/20 21/29/21 32/40/22
f 16/24/18 30/38/17 36/44/23
f 16/24/18 36/44/23 18/26/23
f 30/38/24 27/36/24 36/44/24
f 36/44/24 27/36/24 37/45/24
f 37/45/24 27/36/24 38/46/24
f 38/46/24 27/36/24 39/47/24
f 39/47/24 27/36/24 40/48/24
f 40/48/24 27/36/24 28/35/24
f 18/26/23 36/44/23 37/45/25
f 18/26/23 37/45/25 20/28/25
f 32/40/22 21/29/21 23/31/22
f 32/40/22 23/31/22 33/41/22
f 20/28/25 37/45/25 38/46/25
f 20/28/25 38/46/25 22/30/25
f 33/41/22 23/31/22 25/33/26
f 33/41/22 25/33/26 34/42/27
f 22/30/25 38/46/25 39/47/28
f 22/30/25 39/47/28 24/32/28
f 34/42/27 25/33/26 15/23/29
f 34/42/27 15/23/29 35/43/30
f 35/43/30 15/23/29 11/18/8
f 35/43/30 11/18/8 9/17/7
f 24/32/28 39/47/28 40/48/28
f 24/32/28 40/48/28 26/34/31
f 26/34/31 40/48/28 28/35/13
f 26/34/31 28/35/13 14/21/12
o STOP_0.000_STOP_0.002
v 2.488962 10.622889 0.307489
v 2.488827 8.600661 0.074389
v 2.489677 10.622889 0.074389
v 2.488112 8.600671 0.307489
v 2.541487 8.578821 0.074549
v 2.542357 10.644684 0.074553
v 1.060354 12.053415 0.070002
v 1.080094 7.118662 0.070062
v 1.058304 7.171341 0.069993
v -0.985746 7.119522 0.063722
v -0.963906 7.172192 0.063787
v -2.445910 8.580921 0.059240
v -2.393229 8.602721 0.059401
v -2.445040 10.646780 0.059244
v -2.392380 10.624940 0.059404
v -0.983656 12.106949 0.063730
v -0.961856 12.054266 0.063795
v 1.082194 12.106080 0.070070
v 2.539667 8.579201 0.370947
v 2.540537 10.644307 0.370951
v 1.057588 7.171341 0.303094
v 1.078814 7.119571 0.366464
v -0.964622 7.172192 0.296887
v -2.393945 8.602721 0.292502
v -2.393095 10.624940 0.292505
v -0.962572 12.054265 0.296896
v 1.059639 12.053415 0.303103
v -0.986286 7.120431 0.360124
v -2.445910 8.581301 0.355646
v -2.445039 10.646402 0.355650
v -0.984186 12.106037 0.360132
v 1.080904 12.105169 0.366472
vt 0.031891 0.698023
vt 0.031881 0.698023
vt 0.032044 0.301575
vt 0.032054 0.301575
vt 0.021780 0.702296
vt 0.021946 0.297293
vt 0.305936 0.978473
vt 0.302150 0.011032
vt 0.306329 0.021361
vt 0.698252 0.011203
vt 0.694064 0.021527
vt 0.978220 0.297704
vt 0.968119 0.301977
vt 0.978054 0.702707
vt 0.967956 0.698425
vt 0.697850 0.988968
vt 0.693671 0.978639
vt 0.301748 0.988797
vt 0.021967 0.702223
vt 0.022133 0.297367
vt 0.306339 0.021361
vt 0.302235 0.011211
vt 0.694074 0.021527
vt 0.968129 0.301977
vt 0.967966 0.698425
vt 0.693681 0.978639
vt 0.305946 0.978473
vt 0.698192 0.011381
vt 0.978058 0.297777
vt 0.977892 0.702633
vt 0.697790 0.988789
vt 0.301833 0.988619
vn -1.0000 0.0008 -0.0031
vn -1.0000 0.0008 -0.0029
vn -1.0000 0.0009 -0.0031
vn 0.0031 0.0000 -1.0000
vn 0.0030 0.0000 -1.0000
vn 0.9950 -0.0007 0.1003
vn 0.9950 -0.0008 0.1003
vn 0.9950 -0.0008 0.1002
vn 0.0009 1.0000 -0.0003
vn 0.0009 1.0000 0.0000
vn -0.0011 -0.9953 0.0971
vn -0.0011 -0.9953 0.0972
vn 0.0008 1.0000 0.0000
vn 0.0008 1.0000 0.0004
vn 1.0000 -0.0008 0.0029
vn 1.0000 -0.0008 0.0031
vn -0.0031 0.0000 1.0000
vn -0.9956 0.0008 0.0941
vn -0.0009 -1.0000 -0.0002
vn -0.0009 -1.0000 -0.0000
vn 0.0005 0.9953 0.0972
vn -0.0008 -1.0000 -0.0000
vn -0.0008 -1.0000 -0.0003
vn 0.0005 0.9953 0.0971
usemtl Material
s 1
f 41/49/32 43/50/33 42/51/34
f 41/49/32 42/51/34 44/52/32
f 43/50/35 46/53/35 45/54/36
f 43/50/35 45/54/36 42/51/36
f 47/55/35 46/53/35 43/50/35
f 42/51/36 45/54/36 48/56/35
f 42/51/36 48/56/35 49/57/35
f 49/57/35 48/56/35 50/58/35
f 49/57/35 50/58/35 51/59/35
f 51/59/35 50/58/35 52/60/35
f 51/59/35 52/60/35 53/61/35
f 53/61/35 52/60/35 54/62/36
f 53/61/35 54/62/36 55/63/36
f 55/63/36 54/62/36 56/64/35
f 55/63/36 56/64/35 57/65/35
f 57/65/35 56/64/35 58/66/35
f 57/65/35 58/66/35 47/55/35
f 47/55/35 58/66/35 46/53/35
f 46/53/37 60/67/38 59/68/38
f 46/53/37 59/68/38 45/54/39
f 44/52/32 42/51/34 49/57/40
f 44/52/32 49/57/40 61/69/41
f 45/54/39 59/68/38 62/70/42
f 45/54/39 62/70/42 48/56/43
f 44/52/35 61/69/35 63/71/35
f 44/52/35 63/71/35 64/72/35
f 44/52/35 64/72/35 65/73/35
f 44/52/35 65/73/35 66/74/35
f 44/52/35 66/74/35 67/75/35
f 44/52/35 67/75/35 41/49/35
f 61/69/41 49/57/40 51/59/44
f 61/69/41 51/59/44 63/71/45
f 63/71/45 51/59/44 53/61/46
f 63/71/45 53/61/46 64/72/47
f 48/56/43 62/70/42 68/76/42
f 48/56/43 68/76/42 50/58/43
f 62/70/48 59/68/48 68/76/48
f 68/76/48 59/68/48 69/77/48
f 69/77/48 59/68/48 70/78/48
f 70/78/48 59/68/48 71/79/48
f 71/79/48 59/68/48 72/80/48
f 72/80/48 59/68/48 60/67/48
f 50/58/43 68/76/42 69/77/49
f 50/58/43 69/77/49 52/60/49
f 64/72/47 53/61/46 55/63/47
f 64/72/47 55/63/47 65/73/47
f 52/60/49 69/77/49 70/78/49
f 52/60/49 70/78/49 54/62/49
f 65/73/47 55/63/47 57/65/50
f 65/73/47 57/65/50 66/74/51
f 54/62/49 70/78/49 71/79/52
f 54/62/49 71/79/52 56/64/52
f 66/74/51 57/65/50 47/55/53
f 66/74/51 47/55/53 67/75/54
f 67/75/54 47/55/53 43/50/33
f 67/75/54 43/50/33 41/49/32
f 56/64/52 71/79/52 72/80/52
f 56/64/52 72/80/52 58/66/55
f 58/66/55 72/80/52 60/67/38
f 58/66/55 60/67/38 46/53/37
