# Blender v2.80 (sub 75) OBJ File: ''
# www.blender.org
mtllib CancelSpeedLimit.mtl
o STOPALLM_1
v 0.252639 9.728563 0.132458
v 0.252081 9.728563 -0.049343
v -0.291057 9.728563 0.134129
v -0.291615 9.728563 -0.047672
v -0.291615 0.021121 -0.047680
v 0.252081 0.021121 -0.049347
v -0.291057 0.021121 0.134121
v 0.252639 0.021121 0.132454
vt 1.775990 -0.000002
vt 1.775990 0.999997
vt 1.291900 -0.000001
vt 1.291900 0.999998
vt -1.686860 1.000000
vt -1.202770 1.000000
vt -1.686860 0.000003
vt -1.202770 0.000002
vt 1.291900 0.990187
vt 1.775990 0.977993
vt -1.686860 -0.132901
vt -1.202770 -0.145096
vt 1.775990 0.977993
vt 1.291900 0.990187
vt -1.202770 -0.145096
vt -1.686860 -0.132901
vn 0.0000 1.0000 0.0000
vn -0.0000 -1.0000 -0.0000
vn -0.0031 0.0000 -1.0000
vn -1.0000 0.0000 0.0031
vn 0.0031 -0.0000 1.0000
vn 1.0000 0.0000 -0.0031
usemtl STOPALLM
s 1
f 1/1/1 2/2/1 3/3/1
f 4/4/1 3/3/1 2/2/1
f 5/5/2 6/6/2 7/7/2
f 8/8/2 7/7/2 6/6/2
f 4/9/3 2/10/3 5/11/3
f 6/12/3 5/11/3 2/10/3
f 3/3/4 4/4/4 7/7/4
f 5/5/4 7/7/4 4/4/4
f 1/13/5 3/14/5 8/15/5
f 7/16/5 8/15/5 3/14/5
f 2/2/6 1/1/6 6/6/6
f 8/8/6 6/6/6 1/1/6
o Cube_Cube.001
v -2.024418 6.953876 0.091394
v -2.024418 6.953876 -0.131818
v 2.052485 6.915701 -0.131818
v 2.052485 6.915701 0.091394
v -1.983135 11.362642 -0.131817
v 2.093767 11.324468 -0.131817
v -1.983135 11.362642 0.091395
v 2.093767 11.324468 0.091395
vt 0.000000 0.000000
vt 0.005948 1.005993
vt 1.000000 1.000000
vt 1.000000 0.000000
vt 0.000000 0.000000
vt 0.000000 1.000000
vt 1.000000 1.000000
vt 1.000000 0.000000
vt 0.000000 0.000000
vt 0.000000 1.000000
vt 1.000000 1.000000
vt 1.000000 0.000000
vt 0.000000 0.000000
vt 0.000000 1.000000
vt 1.000000 1.000000
vt 1.000000 0.000000
vt 1.000000 1.000000
vt 1.000000 0.000000
vt 0.000000 0.000000
vt 0.000000 1.000000
vn -0.0094 -1.0000 0.0000
vn 0.0000 0.0000 -1.0000
vn 0.0094 1.0000 0.0000
vn 0.0000 -0.0000 1.0000
vn -1.0000 0.0094 0.0000
vn 1.0000 -0.0094 0.0000
usemtl Material.001
s off
f 9/17/7 10/18/7 11/19/7 12/20/7
f 10/21/8 13/22/8 14/23/8 11/24/8
f 13/25/9 15/26/9 16/27/9 14/28/9
f 15/29/10 9/30/10 12/31/10 16/32/10
f 10/21/11 9/30/11 15/33/11 13/34/11
f 14/35/12 16/36/12 12/31/12 11/24/12
o Plane
v -2.000000 6.900001 0.100001
v 2.000000 6.900001 0.100001
v 2.000000 11.300000 0.100002
v -2.000000 11.300000 0.100002
vt 0.000000 0.000000
vt 1.000000 0.000000
vt 1.000000 1.000000
vt 0.000000 1.000000
vn 0.0000 -0.0000 1.0000
usemtl None
s off
f 17/37/13 18/38/13 19/39/13 20/40/13
